{
	"asset":{
		"version":"2.0",
		"generator":"Sketchfab-12.67.0",
		"copyright":""
	},
	"scenes":[{
		"nodes":[0,
		1]
	}],
	"nodes":[{
		"name":"Sketchfab_Scene",
		"children":[2]
	},
	{
		"name":"Sketchfab_Scene.1",
		"translation":[0.0,
		0.19167560338974,
		0.0],
		"rotation":[0.0,
		0.0,
		0.0,
		-1.0],
		"scale":[1.0,
		1.0,
		1.0],
		"children":[3]
	},
	{
		"name":"Sketchfab_model",
		"translation":[0.0,
		0.0,
		0.0],
		"rotation":[0.7071067690849304,
		0.0,
		0.0,
		-0.7071067690849304],
		"scale":[1.0,
		1.0,
		1.0],
		"children":[4]
	},
	{
		"name":"Sketchfab_model",
		"translation":[0.0,
		0.0,
		0.0],
		"rotation":[0.7071067690849304,
		0.0,
		0.0,
		-0.7071067690849304],
		"scale":[1.0,
		1.0,
		1.0],
		"children":[5]
	},
	{
		"name":"Crystal Heart.fbx",
		"translation":[0.0,
		0.0,
		0.0],
		"rotation":[-0.7071067690849304,
		0.0,
		0.0,
		-0.7071067690849304],
		"scale":[1.0,
		1.0,
		1.0],
		"children":[6]
	},
	{
		"name":"Crystal Heart.fbx",
		"translation":[0.0,
		0.0,
		0.0],
		"rotation":[-0.7071067690849304,
		0.0,
		0.0,
		-0.7071067690849304],
		"scale":[1.0,
		1.0,
		1.0],
		"children":[7]
	},
	{
		"name":"Object_2",
		"children":[8]
	},
	{
		"name":"Object_2",
		"children":[9]
	},
	{
		"name":"RootNode",
		"children":[10]
	},
	{
		"name":"RootNode",
		"children":[11]
	},
	{
		"name":"Crystal_Heart",
		"translation":[0.00015293121396098286,
		0.8390416502952576,
		-0.0008990573696792126],
		"rotation":[0.0,
		0.0,
		0.0,
		-1.0],
		"scale":[0.009999999776482582,
		0.009999999776482582,
		0.009999999776482582],
		"children":[12]
	},
	{
		"name":"Crystal_Heart",
		"translation":[0.00011546306632226333,
		0.6334764361381531,
		-0.0006787882884964347],
		"rotation":[0.0,
		0.0,
		0.0,
		-1.0],
		"scale":[0.009999999776482582,
		0.009999999776482582,
		0.009999999776482582],
		"children":[13]
	},
	{
		"name":"Crystal_Heart_Crystal_Heart_Mat_0",
		"mesh":0
	},
	{
		"name":"Crystal_Heart_Crystal_Heart_Mat_0",
		"mesh":1
	}],
	"meshes":[{
		"name":"Crystal_Heart_Crystal_Heart_Mat_0",
		"primitives":[{
			"attributes":{
				"POSITION":1,
				"NORMAL":2,
				"TEXCOORD_0":3
			},
			"indices":0,
			"material":0
		}]
	},
	{
		"name":"Crystal_Heart_Crystal_Heart_Mat_0",
		"primitives":[{
			"attributes":{
				"POSITION":5,
				"NORMAL":6,
				"TEXCOORD_0":7
			},
			"indices":4,
			"material":1
		}]
	}],
	"accessors":[{
		"bufferView":0,
		"type":"SCALAR",
		"componentType":5123,
		"count":1902,
		"byteOffset":0,
		"min":[0],
		"max":[1901]
	},
	{
		"bufferView":1,
		"type":"VEC3",
		"componentType":5126,
		"count":1902,
		"byteOffset":0,
		"min":[-57.86566162109375,
		-49.9488639831543,
		-25.892803192138673],
		"max":[57.86566162109375,
		49.9488639831543,
		25.892803192138673]
	},
	{
		"bufferView":1,
		"type":"VEC3",
		"componentType":5126,
		"count":1902,
		"byteOffset":12,
		"min":[-0.9993517398834229,
		-0.9938493371009827,
		-0.9999497532844544],
		"max":[0.9978095889091492,
		0.9911646842956543,
		0.9984134435653687]
	},
	{
		"bufferView":1,
		"type":"VEC2",
		"componentType":5126,
		"count":1902,
		"byteOffset":24,
		"min":[0.001949995756149292,
		0.001949995756149292],
		"max":[0.80169677734375,
		0.9980316162109375]
	},
	{
		"bufferView":2,
		"type":"SCALAR",
		"componentType":5123,
		"count":1902,
		"byteOffset":0,
		"min":[0],
		"max":[1901]
	},
	{
		"bufferView":3,
		"type":"VEC3",
		"componentType":5126,
		"count":1902,
		"byteOffset":0,
		"min":[-43.688575744628909,
		-37.71139144897461,
		-19.5490665435791],
		"max":[43.688575744628909,
		37.71139144897461,
		19.5490665435791]
	},
	{
		"bufferView":3,
		"type":"VEC3",
		"componentType":5126,
		"count":1902,
		"byteOffset":12,
		"min":[-0.9993517398834229,
		-0.9938493371009827,
		-0.9999497532844544],
		"max":[0.9978095889091492,
		0.9911646842956543,
		0.9984134435653687]
	},
	{
		"bufferView":3,
		"type":"VEC2",
		"componentType":5126,
		"count":1902,
		"byteOffset":24,
		"min":[0.001949995756149292,
		0.001949995756149292],
		"max":[0.80169677734375,
		0.9980316162109375]
	}],
	"bufferViews":[{
		"buffer":0,
		"byteOffset":0,
		"byteLength":3804,
		"target":34963
	},
	{
		"buffer":0,
		"byteOffset":3804,
		"byteLength":60864,
		"target":34962,
		"byteStride":32
	},
	{
		"buffer":1,
		"byteOffset":0,
		"byteLength":3804,
		"target":34963
	},
	{
		"buffer":1,
		"byteOffset":3804,
		"byteLength":60864,
		"target":34962,
		"byteStride":32
	}],
	"buffers":[{
		"uri":"data:application/octet-stream;base64,",
		"byteLength":64668
	},
	{
		"uri":"data:application/octet-stream;base64,",
		"byteLength":64668
	}],
	"materials":[{
		"name":"SRG Glass Varnis",
		"pbrMetallicRoughness":{
			"baseColorFactor":[0.0,
			0.0,
			0.0,
			0.0],
			"metallicFactor":0.0,
			"roughnessFactor":0.301180533560002
		},
		"emissiveFactor":[0.0,
		0.0,
		0.0],
		"alphaMode":"BLEND",
		"doubleSided":true
	},
	{
		"name":"Mat.1",
		"pbrMetallicRoughness":{
			"baseColorFactor":[0.8,
			0.13599999999999996,
			0.4126666666666663,
			1.0],
			"metallicFactor":0.0,
			"roughnessFactor":0.5
		},
		"emissiveFactor":[0.0,
		0.0,
		0.0],
		"alphaMode":"OPAQUE",
		"doubleSided":true
	}]
}