{
	"asset":{
		"version":"2.0",
		"generator":"Created using the official Cinema 4D glTF Exporter 1.000x284978"
	},
	"nodes":[{
		"name":"Sweep",
		"mesh":0,
		"translation":[0.13012494146823884,
		-0.16346482932567597,
		-947.5474243164063],
		"rotation":[0.5024159550666809,
		-0.49678561091423037,
		-0.49805113673210146,
		0.5027199387550354],
		"scale":[1.0,
		1.0,
		1.0]
	}],
	"scenes":[{
		"nodes":[0]
	}],
	"meshes":[{
		"name":"Sweep",
		"primitives":[{
			"attributes":{
				"NORMAL":2,
				"POSITION":1,
				"TEXCOORD_0":3
			},
			"indices":0,
			"material":0
		}]
	}],
	"accessors":[{
		"bufferView":0,
		"type":"SCALAR",
		"componentType":5123,
		"count":4752,
		"byteOffset":0,
		"min":[0],
		"max":[990]
	},
	{
		"bufferView":1,
		"type":"VEC3",
		"componentType":5126,
		"count":991,
		"byteOffset":0,
		"min":[-22.699939727783204,
		-22.6140079498291,
		-22.0],
		"max":[854.1055297851563,
		947.7703247070313,
		22.0]
	},
	{
		"bufferView":1,
		"type":"VEC3",
		"componentType":5126,
		"count":991,
		"byteOffset":12,
		"min":[-0.9995893239974976,
		-0.9997873306274414,
		-0.9999998807907105],
		"max":[1.0,
		1.0,
		0.9999998807907105]
	},
	{
		"bufferView":1,
		"type":"VEC2",
		"componentType":5126,
		"count":991,
		"byteOffset":24,
		"min":[0.0,
		0.0],
		"max":[1.0,
		1.0]
	}],
	"bufferViews":[{
		"buffer":0,
		"byteOffset":0,
		"byteLength":9504,
		"target":34963
	},
	{
		"buffer":0,
		"byteOffset":9504,
		"byteLength":31712,
		"target":34962,
		"byteStride":32
	}],
	"buffers":[{
		"uri":"data:application/octet-stream;base64,",
		"byteLength":41216
	}],
	"images":[{
		"uri":"data:image/png;base64,"
	}],
	"samplers":[{
		"magFilter":9729,
		"minFilter":9729,
		"wrapS":10497,
		"wrapT":10497
	}],
	"textures":[{
		"sampler":0,
		"source":0
	}],
	"materials":[{
		"pbrMetallicRoughness":{
			"baseColorTexture":{
				"index":0
			},
			"baseColorFactor":[1.0,
			1.0,
			1.0,
			1.0],
			"metallicFactor":0.0,
			"roughnessFactor":0.5
		},
		"emissiveFactor":[0.0,
		0.0,
		0.0],
		"alphaMode":"OPAQUE",
		"doubleSided":false,
		"name":"Mat.1"
	}]
}